# xmcd
#
# Track frame offsets:
#	150
#	16517
#	35332
#	48815
#	62530
#	85715
#	98140
#	112515
#	130775
#	146387
#	159185
#	174805
#	197175
#	211477
#
# Disc length: 2989 seconds
#
# Revision: 2
# Processed by: cddbd v1.4PL0 Copyright (c) Steve Scherf et al.
# Submitted via: CDmax 2.0
#
DISCID=9a0bab0e
DTITLE=Sven Zetterberg and the Chicago Express - The Blue Solution
DYEAR=1990
DGENRE=Blues
TTITLE0=Never like this before
TTITLE1=Pouring water on a drowning man
TTITLE2=Sloppy drunk
TTITLE3=Tight budget
TTITLE4=I need me somebody
TTITLE5=Further information
TTITLE6=I grew tired of it
TTITLE7=The chokin' kind
TTITLE8=I'll never do you wrong
TTITLE9=Jump the boogie
TTITLE10=Had you told it like it was (it wouldn't be like it is)
TTITLE11=My nerve's gone bad
TTITLE12=Back track
TTITLE13=Morocco
EXTD=ID3G: 0
EXTT0=(I. Hayes/D. Porters/B. T. Jones)
EXTT1=(D. Baker/D. McGormick)
EXTT2=(J. A. Lane)
EXTT3=(S. Zetterberg)
EXTT4=(S. Zetterberg)
EXTT5=(S. Zetterberg)
EXTT6=(S. Zetterberg)
EXTT7=(H. Howard)
EXTT8=(J. Tex)
EXTT9=(G. Lightfoot)
EXTT10=(S. Thompson/G. Redd)
EXTT11=(N. Struck)
EXTT12=(W. Jacobs)
EXTT13=(W. Scheel/L. Hope)
PLAYORDER=
